<svg xmlns="http://www.w3.org/2000/svg" viewBox="0 0 24 24" id="twitter"><path d="M8.16 21.433c-2.45 0-4.941-.701-7.405-2.086a.497.497 0 0 1-.23-.59.505.505 0 0 1 .533-.344c1.855.213 3.811-.223 5.276-1.086-1.696-.396-3.065-1.498-3.789-3.098a.5.5 0 0 1 .602-.683c.214.066.432.113.643.139-1.287-.768-2.665-2.237-2.665-4.438 0-.193.111-.369.285-.451a.49.49 0 0 1 .53.063c.16.126.332.236.509.323a5.366 5.366 0 0 1-.87-1.814c-.333-1.285-.141-2.583.556-3.76a.495.495 0 0 1 .396-.242.486.486 0 0 1 .425.187c1.473 1.84 4.089 4.063 8.294 4.469-.078-1.332.321-3.514 2.159-4.586 2.243-1.313 4.446-1.143 6.306.485.828-.186 2.137-.752 2.406-.939a.5.5 0 0 1 .769.538c-.125.472-.408.994-.763 1.463.279-.083.517-.167.644-.23a.5.5 0 0 1 .652.71c-.589.931-1.54 1.795-2.175 2.265.255 3.121-1.009 6.561-3.415 9.254-2.565 2.873-6.001 4.457-9.671 4.457 0-.006-.001-.006-.002-.006zm-5.012-2.034c1.681.688 3.36 1.033 5.012 1.033h.001c3.382 0 6.551-1.466 8.925-4.123 2.297-2.572 3.471-5.854 3.139-8.771a.5.5 0 0 1 .225-.476c.269-.178.68-.502 1.094-.903-.407.088-.803.146-1.089.147h-.002a.501.501 0 0 1-.183-.966c.28-.111.664-.451.992-.87-.563.22-1.177.412-1.626.479a.491.491 0 0 1-.411-.133c-1.58-1.483-3.375-1.652-5.309-.522-1.746 1.021-1.784 3.396-1.6 4.146a.5.5 0 0 1-.514.618c-4.47-.233-7.375-2.346-9.123-4.291a3.822 3.822 0 0 0-.132 2.346c.294 1.133 1.034 2.002 1.597 2.329a.5.5 0 0 1-.153.923 3.093 3.093 0 0 1-1.752-.185c.521 2.084 2.689 3.063 3.299 3.134a.499.499 0 0 1 .268.879c-.433.365-1.072.553-1.83.51.836 1.113 2.132 1.754 3.681 1.789a.498.498 0 1 1 .323.871C6.78 18.44 5 19.179 3.148 19.399z"></path></svg>